<svg id="Ebene_1" data-name="Ebene 1" xmlns="http://www.w3.org/2000/svg" viewBox="0 0 61.37 17.79"><defs><style>.cls-1{fill:#1d1d1b;}</style></defs><title>combine</title><path class="cls-1" d="M281.32,193.74c0-5.47-3-6.24-5.7-6.24a45.92,45.92,0,0,0-6.47.62,44.94,44.94,0,0,1-6.39.62c-7.08,0-10.09-4.62-10.09-11.16V176h4.24v1.39c0,4.54,2.46,6.08,6.62,6.08a33.67,33.67,0,0,0,5.47-.54,35.92,35.92,0,0,1,5.85-.54c4.93-.08,7.39,2.08,8.32,5.54h0.15c0.85-3.46,3.46-5.62,8.39-5.54a35.13,35.13,0,0,1,5.85.54,34.62,34.62,0,0,0,5.54.54c4.31,0,6.7-1.77,6.7-6.08V176H314v1.62c0,6.39-2.77,11.16-10.55,11.16a43.87,43.87,0,0,1-6.31-.62,42.76,42.76,0,0,0-6.24-.62c-2.39,0-5.7.77-5.7,6.24h-3.93Z" transform="translate(-252.67 -175.95)"/></svg>